<?xml version="1.0" standalone="no"?>
<!DOCTYPE svg PUBLIC "-//W3C//DTD SVG 20010904//EN"
 "http://www.w3.org/TR/2001/REC-SVG-20010904/DTD/svg10.dtd">
<svg version="1.0" xmlns="http://www.w3.org/2000/svg"
 width="64.000000pt" height="64.000000pt" viewBox="0 0 64.000000 64.000000"
 preserveAspectRatio="xMidYMid meet">

<g transform="translate(0.000000,64.000000) scale(0.100000,-0.100000)"
fill="#ff443b" stroke="none">
<path d="M80 572 c-50 -24 -83 -92 -76 -154 3 -26 13 -62 22 -80 22 -43 271
-283 294 -283 28 0 278 248 301 298 25 56 24 103 -3 157 -28 55 -73 80 -144
80 -43 0 -61 -6 -103 -34 l-51 -35 -51 35 c-42 28 -60 34 -103 34 -28 0 -66
-8 -86 -18z"/>
</g>
</svg>
